<svg id="Layer_1" data-name="Layer 1" xmlns="http://www.w3.org/2000/svg" viewBox="0 0 909.17 266.8"><defs><style>.cls-1{fill:#fff;}</style></defs><title>deselk name white</title><path class="cls-1" d="M.55,136.82l65.12-.09C130,136.65,155,177.81,155.1,256.46c.11,84.4-23.76,130.14-92.57,130.23l-61.65.08ZM46,350.14l16,0c35,0,47-26.37,46.9-93.43C108.8,199.2,98.07,173.9,62.12,174l-16.37,0Z" transform="translate(-0.55 -123.28)"/><path class="cls-1" d="M230.22,302.33c0,24.26,3,51.26,27.5,51.23,22,0,24.78-18.73,25.56-25.21l42.23-.05c-.69,6-4.9,61.7-68.39,61.79-62,.08-70.71-52-70.77-100.38-.08-60.65,22.89-97.71,71.38-97.78,55.48-.07,69.13,41.44,69.2,91.34,0,6.68-.31,15.67-.67,18.94Zm53.16-32c0-18.62-2.23-42.24-25.65-42.21-25.3,0-26.79,28.46-26.86,42.27Z" transform="translate(-0.55 -123.28)"/><path class="cls-1" d="M393.38,328.4c.23,13.05,6.72,27.58,24.84,27.55,14.63,0,21.56-7.74,21.54-20.25,0-13.52-6.08-20.88-28.7-29.24-45.11-16.54-56.26-32.34-56.3-60.06,0-26,16.34-54.94,61.94-55,50.19-.06,62.39,34.38,62.46,59.46l-42.23.06c-.09-6.77-.8-25.95-21.25-25.92-11.71,0-18,7.47-18,18,0,12.12,7,17.68,29.84,26.13C468,284,483.29,299.42,483.33,330.35c.05,37.63-23.45,59.14-66.83,59.2-45.69.06-66.11-27.1-66.33-61.09Z" transform="translate(-0.55 -123.28)"/><path class="cls-1" d="M550.28,301.91c0,24.26,3,51.26,27.5,51.23,22,0,24.78-18.73,25.56-25.21l42.23-.05c-.69,6-4.9,61.7-68.39,61.79-62,.08-70.71-52-70.77-100.38-.08-60.65,22.89-97.71,71.38-97.77,55.48-.08,69.13,41.43,69.2,91.33,0,6.68-.31,15.67-.67,18.94Zm53.16-32c0-18.61-2.23-42.24-25.65-42.21-25.3,0-26.79,28.46-26.86,42.28Z" transform="translate(-0.55 -123.28)"/><path class="cls-1" d="M680.64,385.88l-.34-262.43,44.13-.06.35,262.43Z" transform="translate(-0.55 -123.28)"/><path class="cls-1" d="M811.38,276.16c13.32-24.18,30.92-54.73,46.67-81.73l48.63-.06c-15.43,24-30.15,45.92-46.27,70.19l49.31,121-50,.07L830.6,299.92c-5.2,7.31-14.23,21.32-19.16,28l.08,57.78-44.14.06L767,123.34l44.14-.06Z" transform="translate(-0.55 -123.28)"/></svg>