<svg id="Layer_1" data-name="Layer 1" xmlns="http://www.w3.org/2000/svg" viewBox="0 0 805.57 229"><defs><style>.cls-1{fill:#1a1a1a;}</style></defs><title>deselk name</title><path class="cls-1" d="M52.22,152.76l59-.07c56.35-.08,78.21,34.17,78.3,103.09.1,73.64-21.15,111.48-80.49,111.56l-56.52.07Zm45,179.42h11.28c26.24,0,35-19.17,34.92-76.6-.06-48.1-7.38-67.19-34.79-67.15H97Z" transform="translate(-52.22 -141.25)"/><path class="cls-1" d="M258.47,295.52c0,19.57,2,39.89,20.37,39.87,16.14,0,18.27-13.25,18.86-19.62l41.79,0c-.82,7.38-4.75,54.46-61.35,54.53C223.2,370.33,215,326.15,215,283c-.07-53.75,21-84.51,63.69-84.57,49.07-.06,61.91,35,62,79.41,0,6.12-.26,14.69-.54,17.53Zm39-30c0-14.33-.92-32.67-18.85-32.64-18.41,0-19.69,19.47-19.68,32.69Z" transform="translate(-52.22 -141.25)"/><path class="cls-1" d="M402,316c.09,10,4.53,21.62,18.54,21.6,10.79,0,15.76-5.58,15.75-14.94,0-10.13-4.43-15.78-23.19-22.63-39.62-14.41-49.63-28.14-49.66-53.08,0-23.43,14.57-48.88,55.69-48.93,46.19-.06,56.22,30.89,56.25,52.3l-40.87.05c0-6.12-.62-20.55-15.84-20.53-8.47,0-13.2,5.43-13.19,13.38,0,9.47,5.67,13.83,24.77,20.79,35.6,13,48.83,26.81,48.86,53.25,0,33.26-20.19,52.49-59.89,52.54-42.41,0-59.2-24.9-59.35-53.74Z" transform="translate(-52.22 -141.25)"/><path class="cls-1" d="M541.39,295.15c0,19.57,2,39.89,20.37,39.87,16.14,0,18.27-13.25,18.86-19.62l41.78,0c-.81,7.38-4.74,54.46-61.34,54.53-54.94.07-63.12-44.1-63.17-87.22-.08-53.74,21-84.5,63.69-84.56,49.07-.06,61.91,35,62,79.41,0,6.12-.26,14.69-.54,17.53Zm39.05-30c0-14.33-.92-32.67-18.85-32.64-18.41,0-19.7,19.47-19.68,32.69Z" transform="translate(-52.22 -141.25)"/><path class="cls-1" d="M650.85,366.63l-.29-225.22,43.77-.06.29,225.22Z" transform="translate(-52.22 -141.25)"/><path class="cls-1" d="M772.43,269.65c11.23-22.27,23.13-46.33,35.49-69l47.78-.06c-12.69,21-24.7,39.83-37.91,60.58l40,105.24-49.29.06-20.45-70.59c-4.36,6.47-11.66,18.17-15.56,23.66l.07,47-43.66,0-.29-225.21,43.65-.06Z" transform="translate(-52.22 -141.25)"/></svg>