<svg id="Layer_1" data-name="Layer 1" xmlns="http://www.w3.org/2000/svg" viewBox="0 0 387.74 616.32"><defs><style>.cls-1{fill:#fff;}.cls-2{fill:gray;}</style></defs><title>full logo white</title><path class="cls-1" d="M39.26,474.93l27.77,0c27.42,0,38.1,17.52,38.14,51.06,0,36-10.13,55.5-39.47,55.54l-26.3,0Zm19.38,91h6.82c14.92,0,20-11.25,20-39.84,0-24.52-4.61-35.31-19.94-35.29h-7Z" transform="translate(-39.26 -28.48)"/><path class="cls-1" d="M137.21,545.52c0,10.34,1.29,21.86,11.73,21.85,9.38,0,10.57-8,10.9-10.75l18,0c-.3,2.57-2.09,26.32-29.17,26.36-26.44,0-30.15-22.19-30.18-42.81,0-25.87,9.76-41.67,30.44-41.7,23.66,0,29.48,17.67,29.51,38.95,0,2.85-.13,6.68-.28,8.08Zm22.67-13.65c0-7.93-.95-18-10.94-18-10.79,0-11.42,12.13-11.45,18Z" transform="translate(-39.26 -28.48)"/><path class="cls-1" d="M206.79,556.64c.1,5.56,2.87,11.76,10.6,11.75,6.23,0,9.19-3.3,9.18-8.64,0-5.76-2.59-8.9-12.24-12.47-19.24-7-24-13.79-24-25.61,0-11.1,7-23.43,26.42-23.46,21.4,0,26.6,14.66,26.64,25.36l-18,0c0-2.88-.34-11.06-9.07-11.05-5,0-7.68,3.18-7.67,7.7,0,5.16,3,7.53,12.72,11.14,17.24,6.34,23.79,12.9,23.8,26.09,0,16-10,25.22-28.49,25.25-19.49,0-28.2-11.56-28.29-26.06Z" transform="translate(-39.26 -28.48)"/><path class="cls-1" d="M273.71,545.34c0,10.35,1.29,21.86,11.73,21.85,9.38,0,10.57-8,10.9-10.75l18,0c-.3,2.56-2.09,26.31-29.17,26.35C258.74,582.8,255,560.58,255,540c0-25.87,9.76-41.67,30.44-41.7,23.66,0,29.48,17.67,29.51,39,0,2.85-.13,6.69-.29,8.08Zm22.67-13.64c0-7.94-.95-18-10.94-18-10.79,0-11.42,12.13-11.45,18Z" transform="translate(-39.26 -28.48)"/><path class="cls-1" d="M329.3,581.15l-.14-111.92,18.82,0,.15,111.92Z" transform="translate(-39.26 -28.48)"/><path class="cls-1" d="M385.06,534.36c5.68-10.31,13.19-23.34,19.9-34.86l20.74,0c-6.58,10.23-12.85,19.58-19.73,29.93L427,581l-21.31,0-12.43-36.56c-2.22,3.12-6.07,9.09-8.17,12l0,24.64-18.82,0-.15-111.92,18.82,0Z" transform="translate(-39.26 -28.48)"/><path class="cls-2" d="M102.66,633.87c1,4.32,4,6.58,9.15,6.58,5.52,0,7.73-2.54,7.73-5.91,0-3.6-1.84-5.54-9.09-7.27-9-2.17-12-5.3-12-10.49,0-5.71,4.21-10.2,12.62-10.21,9,0,12.76,5.14,13.28,10.13h-5.61c-.62-3.12-2.54-5.79-7.85-5.78-4.29,0-6.73,1.91-6.72,5.29s2,4.64,8.43,6.17c10.66,2.56,12.63,6.67,12.64,11.54,0,6.15-4.56,10.86-13.81,10.87s-13.59-5-14.39-10.92Z" transform="translate(-39.26 -28.48)"/><path class="cls-2" d="M155.91,611.72l-11.88,0v-4.68l29.33,0v4.68H161.47l0,32.55H156Z" transform="translate(-39.26 -28.48)"/><path class="cls-2" d="M200.82,607l0,22.36c0,8.48,4.62,10.8,9.24,10.8,5.4,0,9.13-2.57,9.12-10.82l0-22.36h5.55l0,22.08c0,12.2-6.8,15.63-14.77,15.64s-14.71-3.66-14.72-15.29l0-22.39Z" transform="translate(-39.26 -28.48)"/><path class="cls-2" d="M250.29,606.92l13.58,0c10.53,0,17.62,7.11,17.64,18.19s-6.87,19-17.79,19l-13.38,0Zm5.57,32.58h7.47c8.46,0,12.42-6.1,12.41-14.3,0-7.11-3.65-13.67-12.42-13.66h-7.5Z" transform="translate(-39.26 -28.48)"/><path class="cls-2" d="M310.68,606.84l.05,37.22h-5.52l0-37.22Z" transform="translate(-39.26 -28.48)"/><path class="cls-2" d="M369.21,625.18c0,10.26-5.8,19.35-17.6,19.36-11.09,0-17.22-8.45-17.23-19.12s6.31-19.16,17.63-19.17C362.57,606.24,369.2,614.05,369.21,625.18Zm-29.07.07c0,7.9,4,14.65,11.7,14.64,8.36,0,11.62-6.92,11.61-14.63s-3.73-14.37-11.66-14.36C343.67,610.91,340.13,617.44,340.14,625.25Z" transform="translate(-39.26 -28.48)"/><polygon class="cls-1" points="282.79 242.18 294.22 225.85 317.32 225.85 294.34 258.68 282.79 242.18"/><polygon class="cls-1" points="70.41 225.85 93.51 225.85 104.94 242.19 93.4 258.68 70.41 225.85"/><polygon class="cls-1" points="105.4 91.27 124.3 64.28 124.3 137.4 105.4 164.39 105.4 91.27"/><polygon class="cls-1" points="263.43 137.38 263.43 64.25 282.34 91.26 282.34 164.39 263.43 137.38"/><path class="cls-1" d="M220.78,413l-35.64-50.88-14-20-11.4-16.27L146.5,306.91l13.22-18.85L171.67,271l-12.18-17.41-1.69-2.42L146.28,234.7l13.57-19.38h0l9.56-13.63L188.77,174l.46-.46,0-.84V55.48l8.89-12.68,10-14.31V179.34L169.38,234.7l13.85,19.77,37.53-53.61,12.37-17.65,12.36,17.65L283,254.48l13.84-19.78-38.76-55.36V28.48L277,55.5V173.36l23.42,33.45h0l6.17,8.82.12.17.2.31,13,18.57-11.51,16.45-1.69,2.42L294.57,271l25.18,35.94-38.63,55.17L245.48,413l-12.35,17.65ZM195,343.23l38.11,54.42,38.09-54.42-5.9-8.44,25.42-36.31-7.72-11L256,326.13l-10.47,14.92-12.35,17.67-12.37-17.65-24.47-35-13.06-18.66-7.72,11,25.42,36.31Zm25.18-36,12.93,18.47,12.92-18.47L233.13,288.8Zm25.29-33.8,12.12,17.32L271.48,271l-13.89-19.84-24.46-34.94-24.46,34.95L194.78,271l13.87,19.82,12.11-17.32,12.37-17.65Z" transform="translate(-39.26 -28.48)"/></svg>