<svg id="Layer_1" data-name="Layer 1" xmlns="http://www.w3.org/2000/svg" viewBox="0 0 395.26 633.81"><defs><style>.cls-1{fill:#1a1a1a;}.cls-2{fill:#4d4d4d;}</style></defs><title>full logo black</title><path class="cls-1" d="M35.74,479.48l28.94,0c27.65,0,38.38,16.77,38.42,50.59.05,36.13-10.38,54.69-39.5,54.73l-27.73,0Zm22,88h5.54c12.87,0,17.17-9.41,17.13-37.59,0-23.6-3.62-33-17.07-32.95H57.7Z" transform="translate(-35.74 -19.4)"/><path class="cls-1" d="M136.94,549.53c0,9.6,1,19.57,10,19.56,7.92,0,9-6.5,9.25-9.63l20.51,0c-.4,3.62-2.33,26.72-30.1,26.75-27,0-31-21.64-31-42.79,0-26.37,10.29-41.46,31.25-41.49,24.08,0,30.38,17.16,30.41,39,0,3-.13,7.21-.26,8.6Zm19.15-14.73c0-7-.45-16-9.24-16-9,0-9.67,9.56-9.66,16Z" transform="translate(-35.74 -19.4)"/><path class="cls-1" d="M207.36,559.57c0,4.89,2.22,10.61,9.09,10.6,5.3,0,7.74-2.74,7.73-7.33,0-5-2.17-7.75-11.38-11.11-19.44-7.07-24.35-13.81-24.37-26,0-11.5,7.16-24,27.33-24,22.67,0,27.59,15.16,27.6,25.66l-20.05,0c0-3-.3-10.09-7.77-10.08-4.16,0-6.48,2.67-6.48,6.57,0,4.64,2.78,6.78,12.16,10.2,17.46,6.37,24,13.15,24,26.13,0,16.32-9.91,25.75-29.38,25.78-20.81,0-29.05-12.22-29.13-26.37Z" transform="translate(-35.74 -19.4)"/><path class="cls-1" d="M275.76,549.34c0,9.6,1,19.58,10,19.57,7.92,0,9-6.51,9.25-9.63l20.51,0c-.4,3.63-2.33,26.73-30.11,26.76-26.95,0-31-21.64-31-42.79,0-26.37,10.29-41.47,31.25-41.49,24.08,0,30.38,17.16,30.41,39,0,3-.13,7.2-.27,8.6Zm19.15-14.72c0-7-.45-16-9.24-16-9,0-9.67,9.56-9.66,16Z" transform="translate(-35.74 -19.4)"/><path class="cls-1" d="M329.46,584.41l-.14-110.5,21.48,0,.14,110.51Z" transform="translate(-35.74 -19.4)"/><path class="cls-1" d="M389.12,536.83c5.51-10.93,11.35-22.73,17.41-33.88l23.45,0c-6.23,10.31-12.12,19.54-18.6,29.73L431,584.28l-24.18,0-10-34.63c-2.14,3.17-5.72,8.91-7.63,11.61l0,23.05-21.42,0-.14-110.5,21.42,0Z" transform="translate(-35.74 -19.4)"/><path class="cls-2" d="M99.69,642c1,4.43,4.06,6.74,9.38,6.74,5.66,0,7.92-2.6,7.91-6,0-3.69-1.88-5.68-9.31-7.46-9.25-2.22-12.27-5.42-12.28-10.74,0-5.85,4.32-10.46,12.93-10.47,9.27,0,13.07,5.27,13.6,10.39h-5.74c-.64-3.19-2.61-5.93-8.05-5.92-4.4,0-6.89,2-6.88,5.42s2,4.75,8.64,6.33c10.92,2.62,12.94,6.83,13,11.82,0,6.31-4.68,11.12-14.15,11.14S94.76,648.08,93.94,642Z" transform="translate(-35.74 -19.4)"/><path class="cls-2" d="M154.25,619.32l-12.18,0v-4.79l30.05,0v4.79l-12.19,0,.05,33.34H154.3Z" transform="translate(-35.74 -19.4)"/><path class="cls-2" d="M200.26,614.47l0,22.91c0,8.69,4.74,11.07,9.47,11.06,5.53,0,9.35-2.63,9.34-11.09l0-22.9h5.69l0,22.62c0,12.49-7,16-15.13,16s-15.07-3.75-15.09-15.66l0-22.94Z" transform="translate(-35.74 -19.4)"/><path class="cls-2" d="M251,614.4h13.91c10.79,0,18.06,7.28,18.07,18.64s-7,19.48-18.22,19.49l-13.71,0Zm5.71,33.39h7.65c8.66,0,12.73-6.25,12.72-14.66,0-7.28-3.75-14-12.73-14h-7.68Z" transform="translate(-35.74 -19.4)"/><path class="cls-2" d="M312.82,614.32l.05,38.14h-5.66l0-38.14Z" transform="translate(-35.74 -19.4)"/><path class="cls-2" d="M372.79,633.11c0,10.52-6,19.83-18,19.84-11.36,0-17.64-8.65-17.65-19.59s6.46-19.63,18.06-19.64C366,613.71,372.78,621.71,372.79,633.11Zm-29.78.08c0,8.09,4.06,15,12,15,8.57,0,11.91-7.1,11.9-15s-3.82-14.72-11.95-14.71C346.63,618.5,343,625.19,343,633.19Z" transform="translate(-35.74 -19.4)"/><polygon class="cls-1" points="325.91 231.92 312.96 250.4 298.84 270.58 284.71 250.4 297.66 231.92 325.91 231.92"/><polygon class="cls-1" points="110.54 250.4 110.54 250.42 96.43 270.58 82.3 250.4 69.36 231.92 97.59 231.92 110.54 250.4"/><polygon class="cls-1" points="129.59 64.73 129.59 145.5 109.84 173.71 106.47 178.51 106.47 97.75 110.08 92.6 121.61 76.14 129.59 64.73"/><polygon class="cls-1" points="288.79 97.74 288.79 178.51 285.42 173.71 265.66 145.48 265.66 64.71 288.79 97.74"/><line class="cls-1" x1="174.5" y1="159.07" x2="166.92" y2="169.9"/><path class="cls-1" d="M297.75,270.12l11.47-16.37,1.7-2.44,12.41-17.73-5.93-8.47-8-11.39-.2-.29v0l-.73-1-5.74-8.2h0l-3.52-5-19.6-28V52.43l-23.11-33h0V178.47l7.58,10.82,31,44.3L283.63,250l-36.14-51.62-14.12-20.17-14.13,20.17-36.14,51.6-11.46-16.35,31-44.3,7.58-10.82V19.4L196.45,39.11l-5.72,8.16-3.61,5.15V171.16l-19.6,28-3.53,5-5.74,8.2-.72,1v0l-8.19,11.68-5.94,8.48,12.42,17.72,1.71,2.44L169,270.12l-11.23,16.05-14.12,20.16,14.12,20.18,11.49,16.39,14.12,20.18,35.9,51.24,14.12,20.17,14.11-20.17,35.9-51.24,14.13-20.18L309,326.51l14.12-20.18L309,286.17ZM210.4,251.31l23-32.81,23,32.81,13.18,18.81L258,286.53l-10.53-15-14.12-20.17-14.13,20.17-10.53,15-11.48-16.41Zm33.5,55.38-10.53,15.05-10.53-15.05,10.53-15.05Zm19.41,27.72,5.94,8.5-35.88,51.26-35.9-51.26,5.95-8.5-25.61-36.57,5.29-7.56,11.48,16.41,14.13,20.18,10.53,15,14.13,20.16,14.11-20.18,10.54-15,14.12-20.16,11.48-16.41,5.29,7.56Z" transform="translate(-35.74 -19.4)"/><line class="cls-1" x1="228.34" y1="169.9" x2="220.76" y2="159.07"/></svg>