<svg id="Layer_1" data-name="Layer 1" xmlns="http://www.w3.org/2000/svg" viewBox="0 0 395.26 639.5"><defs><style>.cls-1{fill:#1a1a1a;}</style></defs><title>logo black</title><polygon class="cls-1" points="395.26 357.31 375.32 385.79 353.56 416.87 331.79 385.79 351.74 357.31 395.26 357.31"/><polygon class="cls-1" points="63.45 385.79 63.45 385.81 41.71 416.87 19.95 385.79 0 357.31 43.51 357.31 63.45 385.79"/><polygon class="cls-1" points="92.8 99.73 92.8 224.16 62.38 267.63 57.19 275.02 57.19 150.6 62.75 142.66 80.5 117.3 92.8 99.73"/><polygon class="cls-1" points="338.07 150.58 338.07 275.02 332.89 267.63 302.44 224.14 302.44 99.69 338.07 150.58"/><line class="cls-1" x1="162" y1="245.08" x2="150.32" y2="261.76"/><path class="cls-1" d="M332.55,403l17.68-25.21,2.62-3.77L372,346.72l-9.14-13-12.29-17.55-.31-.45v0l-1.12-1.6-8.85-12.62,0,0-5.41-7.73-30.2-43.14V67.63L269,16.75h0V261.81l11.68,16.68,47.78,68.25L310.81,372l-55.68-79.54-21.76-31.06L211.6,292.42l-55.68,79.52-17.65-25.2,47.79-68.25,11.67-16.68V16.75L176.49,47.11l-8.81,12.57-5.56,7.93V250.53l0,0-30.2,43.14-5.43,7.75-8.85,12.62-1.11,1.6v0l-12.61,18-9.16,13.06L113.88,374l2.63,3.77L134.16,403l-17.3,24.72L95.09,458.81l21.77,31.08,17.69,25.26,21.76,31.08,55.31,79,21.75,31.06,21.74-31.06,55.31-79,21.76-31.08,17.69-25.26,21.77-31.08-21.77-31.07ZM198,374l35.39-50.55L268.75,374l20.3,29-17.7,25.28-16.22-23.19L233.37,374,211.6,405.11,195.38,428.3,177.68,403Zm51.61,85.32-16.22,23.19-16.23-23.19,16.23-23.19Zm29.91,42.71,9.15,13.1-55.28,79-55.31-79,9.17-13.1-39.45-56.35,8.14-11.63,17.69,25.27,21.77,31.09,16.22,23.17,21.77,31.06,21.74-31.08,16.24-23.17,21.75-31.07,17.69-25.27,8.14,11.63Z" transform="translate(-35.74 -16.75)"/><line class="cls-1" x1="244.94" y1="261.76" x2="233.26" y2="245.08"/></svg>