<svg id="Layer_1" data-name="Layer 1" xmlns="http://www.w3.org/2000/svg" viewBox="0 0 391.42 637.49"><defs><style>.cls-1{fill:#fff;}</style></defs><title>logo white</title><polygon class="cls-1" points="336.67 383.92 354.8 358.04 391.42 358.04 354.98 410.08 336.67 383.92"/><polygon class="cls-1" points="0 358.04 36.61 358.04 54.74 383.93 36.44 410.08 0 358.04"/><polygon class="cls-1" points="55.46 144.7 85.42 101.91 85.42 217.81 55.46 260.61 55.46 144.7"/><polygon class="cls-1" points="305.98 217.79 305.98 101.86 335.96 144.67 335.96 260.61 305.98 217.79"/><path class="cls-1" d="M213.55,626.84l-56.5-80.66-22.23-31.75-18.07-25.8-21-29.91,21-29.89,19-27.09-19.32-27.6-2.68-3.84L95.45,344.25,117,313.53v0l15.15-21.61,30.68-43.84.73-.73,0-1.33V60.14L177.65,40l15.87-22.67V256.49l-61.45,87.76,22,31.33,59.51-85,19.6-28,19.6,28,59.51,85,21.94-31.35-61.44-87.76V17.32l30,42.84V247l37.12,53,0,0,9.79,14,.18.27.33.49,20.63,29.44L352.55,370.3l-2.68,3.85-19.34,27.59,39.92,57-61.24,87.47-56.5,80.65-19.58,28ZM172.71,516.29l60.42,86.27,60.39-86.26-9.35-13.39,40.28-57.55-12.23-17.49L269.3,489.18l-16.59,23.67-19.58,28-19.6-28-38.81-55.42L154,427.87l-12.24,17.49,40.31,57.55Zm39.93-57,20.49,29.29,20.49-29.29L233.13,430Zm40.09-53.58,19.2,27.45,22-31.42-22-31.44-38.77-55.4-38.77,55.4-22,31.44,22,31.42,19.21-27.45,19.6-28Z" transform="translate(-37.42 -17.32)"/></svg>