<svg id="Layer_1" data-name="Layer 1" xmlns="http://www.w3.org/2000/svg" viewBox="0 0 764.54 632"><defs><style>.cls-1{fill:#dbdbdb;}</style></defs><title>2</title><path class="cls-1" d="M723.89,56.28A216.35,216.35,0,0,1,887,217.21l1.12-2.84A217.4,217.4,0,0,0,722.82,54.24,20.77,20.77,0,0,1,723.89,56.28Z" transform="translate(-294.86 -16)"/><path class="cls-1" d="M524.61,114.54A215.21,215.21,0,0,1,641.53,54.11a19.79,19.79,0,0,1,.64-1.88,216.66,216.66,0,0,0-118.48,60.63C524,113.4,524.33,114,524.61,114.54Z" transform="translate(-294.86 -16)"/><path class="cls-1" d="M474.43,340.35a215.67,215.67,0,0,1,4.87-159.3,16.91,16.91,0,0,1-1.62-.75l-.82,1.89a218.23,218.23,0,0,0-3.92,159.27A16,16,0,0,1,474.43,340.35Z" transform="translate(-294.86 -16)"/><path class="cls-1" d="M752.46,468.83a215.42,215.42,0,0,1-232-54,18.8,18.8,0,0,1-.78,1.84q1.83,1.92,3.72,3.81a217.63,217.63,0,0,0,229.72,50C752.91,469.93,752.67,469.38,752.46,468.83Z" transform="translate(-294.86 -16)"/><path class="cls-1" d="M891.73,287.82a214.71,214.71,0,0,1-48.88,116.77c.25.59.49,1.2.69,1.83a.74.74,0,0,1,0,.14,216.45,216.45,0,0,0,49.84-118.07Z" transform="translate(-294.86 -16)"/><path class="cls-1" d="M395.48,268v-1.22A281.08,281.08,0,0,1,491.42,55.21l-.16-.24a11.39,11.39,0,0,1-.79-1.4q-7.05,6.16-13.72,12.84a282.52,282.52,0,0,0-83,200.38c0,.47,0,.95,0,1.42C394.33,268.12,394.9,268.05,395.48,268Z" transform="translate(-294.86 -16)"/><path class="cls-1" d="M675.54,548.44c-131.07-.73-241.23-91.45-271.7-213.39-.58.11-1.17.2-1.76.26A283.17,283.17,0,0,0,675,550.16C675.13,549.57,675.32,549,675.54,548.44Z" transform="translate(-294.86 -16)"/><path class="cls-1" d="M877.51,66.41a283,283,0,0,0-54.77-42.79c0,.17,0,.34.08.51.08.63.16,1.24.22,1.84a283.52,283.52,0,0,1,73.15,64,18.37,18.37,0,0,1,1.38-1.27A284.66,284.66,0,0,0,877.51,66.41Z" transform="translate(-294.86 -16)"/><path class="cls-1" d="M938.43,157c-.43.48-.89.93-1.37,1.37a280.12,280.12,0,0,1,21.72,108.46c0,123.94-80.47,229.44-191.91,267a16,16,0,0,1,.57,1.69q10.11-3.4,20-7.58A283.66,283.66,0,0,0,938.43,157Z" transform="translate(-294.86 -16)"/><path class="cls-1" d="M337.84,439c-.29.18-.59.36-.9.53l-.74.38A384.17,384.17,0,0,0,493.65,602.25a17.63,17.63,0,0,1,.87-1.67A383.2,383.2,0,0,1,337.84,439Z" transform="translate(-294.86 -16)"/><path class="cls-1" d="M311.26,162a16.22,16.22,0,0,1-1.54-1.15,385.77,385.77,0,0,0-6.6,185.44,13.61,13.61,0,0,1,1.8-.12A381.94,381.94,0,0,1,311.26,162Z" transform="translate(-294.86 -16)"/><path class="cls-1" d="M1033.43,400.48C982.4,536,856.13,635,705.79,646.26A16.53,16.53,0,0,1,706,648,381.06,381.06,0,0,0,947.43,537.1a381.11,381.11,0,0,0,81.93-121.51q3-7,5.65-14.16C1034.47,401.14,1033.94,400.82,1033.43,400.48Z" transform="translate(-294.86 -16)"/><path class="cls-1" d="M388.62,16a380.49,380.49,0,0,0-42.74,59.82c.59.22,1.17.47,1.76.75A382.17,382.17,0,0,1,391.17,16Z" transform="translate(-294.86 -16)"/><path class="cls-1" d="M1029.36,118A380.33,380.33,0,0,0,965.64,16h-2.56a380.32,380.32,0,0,1,90.2,308.62c.59,0,1.18.1,1.76.19a385.57,385.57,0,0,0,4.36-58A379.9,379.9,0,0,0,1029.36,118Z" transform="translate(-294.86 -16)"/></svg>