<svg id="Layer_1" data-name="Layer 1" xmlns="http://www.w3.org/2000/svg" viewBox="0 0 925.6 946.04"><defs><style>.cls-1{fill:#dbdbdb;}</style></defs><title>3</title><path class="cls-1" d="M853.76,169.75c99.92,22.18,179,100.36,202.49,199.79l1.4-3.53A269.94,269.94,0,0,0,852.43,167.22,25.33,25.33,0,0,1,853.76,169.75Z" transform="translate(-321.15 41.7)"/><path class="cls-1" d="M606.36,242.08a267.25,267.25,0,0,1,145.16-75c.23-.79.49-1.57.79-2.34A269.08,269.08,0,0,0,605.23,240,23.36,23.36,0,0,1,606.36,242.08Z" transform="translate(-321.15 41.7)"/><path class="cls-1" d="M544.07,522.41a267.71,267.71,0,0,1,6-197.76q-1-.42-2-.93c-.34.78-.69,1.56-1,2.34a270.85,270.85,0,0,0-4.87,197.72C542.82,523.3,543.43,522.84,544.07,522.41Z" transform="translate(-321.15 41.7)"/><path class="cls-1" d="M889.23,681.91a267.38,267.38,0,0,1-288-67c-.29.78-.61,1.54-1,2.28q2.26,2.39,4.61,4.73A270.19,270.19,0,0,0,890.1,684Q889.62,682.95,889.23,681.91Z" transform="translate(-321.15 41.7)"/><path class="cls-1" d="M1062.13,457.2a266.56,266.56,0,0,1-60.69,145c.32.74.61,1.49.86,2.27,0,.06,0,.12.05.17A268.71,268.71,0,0,0,1064.22,458Z" transform="translate(-321.15 41.7)"/><path class="cls-1" d="M446.07,432.61c0-.51,0-1,0-1.52,0-104.55,46.13-198.53,119.1-262.66-.06-.1-.13-.2-.2-.3a16.5,16.5,0,0,1-1-1.74q-8.75,7.67-17,15.94a350.77,350.77,0,0,0-103,248.76c0,.59,0,1.18,0,1.76C444.63,432.74,445.34,432.66,446.07,432.61Z" transform="translate(-321.15 41.7)"/><path class="cls-1" d="M793.74,780.74C631,779.83,494.27,667.21,456.44,515.83c-.72.14-1.46.25-2.19.33A351.53,351.53,0,0,0,793,782.88C793.23,782.14,793.47,781.43,793.74,780.74Z" transform="translate(-321.15 41.7)"/><path class="cls-1" d="M904.45,96.41a353.35,353.35,0,0,0-245.68,10.53q-10.93,4.64-21.49,10a18.76,18.76,0,0,1,1.84,1.61A349.7,349.7,0,0,1,903.58,98.46,21.72,21.72,0,0,1,904.45,96.41Z" transform="translate(-321.15 41.7)"/><path class="cls-1" d="M1044.47,182.33a351.88,351.88,0,0,0-68-53.13l.09.65c.11.77.21,1.53.28,2.27a352.63,352.63,0,0,1,90.82,79.44,21.21,21.21,0,0,1,1.71-1.57A356.75,356.75,0,0,0,1044.47,182.33Z" transform="translate(-321.15 41.7)"/><path class="cls-1" d="M1120.11,294.74q-.81.88-1.71,1.71a347.82,347.82,0,0,1,27,134.64c0,153.87-99.9,284.84-238.24,331.46a20.09,20.09,0,0,1,.71,2.11q12.54-4.23,24.82-9.41a352.19,352.19,0,0,0,187.46-460.51Z" transform="translate(-321.15 41.7)"/><path class="cls-1" d="M374.5,644.86c-.36.23-.73.46-1.11.66s-.61.32-.92.47A476.88,476.88,0,0,0,567.94,847.54a18.43,18.43,0,0,1,1.07-2.07A475.83,475.83,0,0,1,374.5,644.86Z" transform="translate(-321.15 41.7)"/><path class="cls-1" d="M341.51,301c-.67-.45-1.31-.92-1.92-1.42a479,479,0,0,0-8.19,230.2,18.84,18.84,0,0,1,2.24-.14A473.88,473.88,0,0,1,341.51,301Z" transform="translate(-321.15 41.7)"/><path class="cls-1" d="M611-6.18A476.78,476.78,0,0,0,384.49,194a23.62,23.62,0,0,1,2.18.92C461.86,65.2,597-25.66,753.9-39.49c.11-.74.24-1.48.41-2.2h0A470.3,470.3,0,0,0,611-6.18Z" transform="translate(-321.15 41.7)"/><path class="cls-1" d="M1238,597.05c-63.35,168.28-220.11,291.16-406.74,305.13.1.71.18,1.43.22,2.16A475.22,475.22,0,0,0,1233,615.81q3.69-8.73,7-17.58A21.66,21.66,0,0,1,1238,597.05Z" transform="translate(-321.15 41.7)"/><path class="cls-1" d="M1246.75,283.11q-6.11-18.58-13.77-36.74A474.28,474.28,0,0,0,855.7-39.73a17.56,17.56,0,0,1-.43,2.16c185.12,23.39,337.19,154.31,391.48,328Z" transform="translate(-321.15 41.7)"/></svg>