<svg id="Layer_1" data-name="Layer 1" xmlns="http://www.w3.org/2000/svg" viewBox="0 0 717.07 827.8"><defs><style>.cls-1{fill:#333;}</style></defs><title>4</title><path class="cls-1" d="M915.87,101.65c106.44,23.63,190.69,106.92,215.71,212.83l1.49-3.76A287.51,287.51,0,0,0,914.46,99,25.42,25.42,0,0,1,915.87,101.65Z" transform="translate(-642.5 59)"/><path class="cls-1" d="M652.33,178.7A284.7,284.7,0,0,1,807,98.78c.24-.84.52-1.67.84-2.48a286.52,286.52,0,0,0-156.68,80.18C651.56,177.2,652,177.94,652.33,178.7Z" transform="translate(-642.5 59)"/><path class="cls-1" d="M953.65,647.24A284.82,284.82,0,0,1,646.9,575.83a22.76,22.76,0,0,1-1,2.43q2.43,2.55,4.92,5a287.82,287.82,0,0,0,303.81,66.11C954.25,648.7,953.93,648,953.65,647.24Z" transform="translate(-642.5 59)"/><path class="cls-1" d="M1137.84,407.86a283.86,283.86,0,0,1-64.65,154.42c.34.79.65,1.59.92,2.43,0,.06,0,.12.05.18a286.26,286.26,0,0,0,65.91-156.14Z" transform="translate(-642.5 59)"/><path class="cls-1" d="M969.87,23.53A376.41,376.41,0,0,0,708.16,34.74q-11.67,4.93-22.9,10.61a20,20,0,0,1,2,1.71A372.47,372.47,0,0,1,969,25.71,21.88,21.88,0,0,1,969.87,23.53Z" transform="translate(-642.5 59)"/><path class="cls-1" d="M1119,115.06a374.61,374.61,0,0,0-72.43-56.6c0,.23.07.46.1.68q.18,1.24.3,2.43a375.55,375.55,0,0,1,96.74,84.62c.58-.59,1.19-1.15,1.82-1.68A379.49,379.49,0,0,0,1119,115.06Z" transform="translate(-642.5 59)"/><path class="cls-1" d="M1199.6,234.8a24,24,0,0,1-1.82,1.82,370.43,370.43,0,0,1,28.73,143.43c0,163.91-106.42,303.43-253.79,353.09q.42,1.1.75,2.25,13.37-4.5,26.44-10A375.17,375.17,0,0,0,1199.6,234.8Z" transform="translate(-642.5 59)"/><path class="cls-1" d="M1319.84,183.27A507.93,507.93,0,0,0,1104.87-59h-5.09c153.54,86.27,257.51,250.74,257.51,439.05a504.9,504.9,0,0,1-5.8,76.48c.77.05,1.55.13,2.32.24a510.43,510.43,0,0,0,5.76-76.72A502.45,502.45,0,0,0,1319.84,183.27Z" transform="translate(-642.5 59)"/><path class="cls-1" d="M642.5,686.46v3A373.19,373.19,0,0,0,851.17,754.8a23.46,23.46,0,0,1,.77-2.28A370.39,370.39,0,0,1,642.5,686.46Z" transform="translate(-642.5 59)"/><path class="cls-1" d="M1177.26,768.8Q1195,754,1211.5,737.52a503.79,503.79,0,0,0,108.34-160.69q3.95-9.3,7.48-18.73c-.71-.38-1.41-.8-2.09-1.25a505.47,505.47,0,0,1-152,211.95Z" transform="translate(-642.5 59)"/></svg>