<svg id="Layer_1" data-name="Layer 1" xmlns="http://www.w3.org/2000/svg" viewBox="0 0 1011.17 1110.31"><defs><style>.cls-1{fill:#fff;}</style></defs><title>top</title><path class="cls-1" d="M585.78,72.34A382.75,382.75,0,0,1,793.63-35.08c.32-1.13.7-2.25,1.12-3.34A385.21,385.21,0,0,0,584.15,69.36C584.74,70.33,585.28,71.32,585.78,72.34Z" transform="translate(-177.37 171)"/><path class="cls-1" d="M496.58,473.76a383.34,383.34,0,0,1,8.66-283.18c-1-.4-1.94-.84-2.87-1.33-.49,1.12-1,2.23-1.47,3.35a388,388,0,0,0-7,283.12A29.7,29.7,0,0,1,496.58,473.76Z" transform="translate(-177.37 171)"/><path class="cls-1" d="M990.81,702.15A381.49,381.49,0,0,1,856.9,726.29c-109.55,0-208.5-46.2-278.42-120.13a32.57,32.57,0,0,1-1.39,3.26q3.25,3.42,6.61,6.78a386.88,386.88,0,0,0,408.36,88.86C991.61,704.1,991.19,703.13,990.81,702.15Z" transform="translate(-177.37 171)"/><path class="cls-1" d="M356.24,345.17c0-.73,0-1.45,0-2.17,0-149.72,66.06-284.29,170.55-376.11-.09-.15-.19-.28-.29-.43a24.53,24.53,0,0,1-1.4-2.5q-12.52,11-24.39,22.84A502.21,502.21,0,0,0,353.16,343c0,.84,0,1.67,0,2.51C354.19,345.35,355.21,345.24,356.24,345.17Z" transform="translate(-177.37 171)"/><path class="cls-1" d="M854.08,843.65c-233-1.29-428.82-162.56-483-379.32-1.05.2-2.09.36-3.14.47A503.38,503.38,0,0,0,853.06,846.72C853.35,845.67,853.7,844.64,854.08,843.65Z" transform="translate(-177.37 171)"/><path class="cls-1" d="M1012.61-136.23a505.93,505.93,0,0,0-351.79,15.07Q645.15-114.53,630-106.9a27.52,27.52,0,0,1,2.64,2.3,500.69,500.69,0,0,1,378.69-28.7A28,28,0,0,1,1012.61-136.23Z" transform="translate(-177.37 171)"/><path class="cls-1" d="M253.77,649.09c-.52.34-1.05.65-1.6.95s-.87.46-1.31.67a682.91,682.91,0,0,0,279.89,288.6,30.94,30.94,0,0,1,1.54-3A681.27,681.27,0,0,1,253.77,649.09Z" transform="translate(-177.37 171)"/><path class="cls-1" d="M206.53,156.72a33.59,33.59,0,0,1-2.74-2,685.69,685.69,0,0,0-11.74,329.63,26.88,26.88,0,0,1,3.21-.21,678.51,678.51,0,0,1,11.27-327.38Z" transform="translate(-177.37 171)"/><path class="cls-1" d="M412.37-171q-18.51,16-36,33.5a679.21,679.21,0,0,0-108.33,141c1,.39,2.08.83,3.12,1.33A681.5,681.5,0,0,1,417.6-171Z" transform="translate(-177.37 171)"/><path class="cls-1" d="M1188.54,717.75a501,501,0,0,1-172.11,99.86,29.75,29.75,0,0,1,1,3q18-6,35.53-13.48a501.05,501.05,0,0,0,135.56-85Z" transform="translate(-177.37 171)"/><path class="cls-1" d="M1188.54,535a385.43,385.43,0,0,1-37,53,34,34,0,0,1,1.23,3.25c0,.08,0,.17.08.25a385.85,385.85,0,0,0,35.74-50.1Z" transform="translate(-177.37 171)"/><path class="cls-1" d="M1188.54-36.19a501,501,0,0,0-72.79-53.09c0,.31.09.62.13.92.16,1.11.29,2.19.4,3.26a503.75,503.75,0,0,1,72.26,53.35Z" transform="translate(-177.37 171)"/><path class="cls-1" d="M1188.54,144.62A386.3,386.3,0,0,0,938.12-34.84a31.93,31.93,0,0,1,1.9,3.62C1046-7.71,1135.52,59.78,1188.54,151Z" transform="translate(-177.37 171)"/></svg>