<svg id="Layer_1" data-name="Layer 1" xmlns="http://www.w3.org/2000/svg" viewBox="0 0 382.14 622.37"><defs><style>.cls-1{opacity:0.3;}.cls-2{fill:#fff;}</style></defs><title>logo bg</title><g class="cls-1"><polygon class="cls-2" points="328.68 374.81 346.38 349.54 382.14 349.54 346.56 400.35 328.68 374.81"/><polygon class="cls-2" points="0 349.54 35.74 349.54 53.44 374.82 35.58 400.35 0 349.54"/><polygon class="cls-2" points="54.15 141.26 83.39 99.49 83.39 212.64 54.15 254.43 54.15 141.26"/><polygon class="cls-2" points="298.72 212.62 298.72 99.44 327.99 141.24 327.99 254.43 298.72 212.62"/><path class="cls-2" d="M664,668.27l-55.15-78.73-21.71-31-17.64-25.19-20.45-29.2L569.52,475,588,448.52l-18.86-26.94-2.62-3.75-17.83-25.44,21-30v0l14.79-21.1,30-42.79.71-.71,0-1.31V115L629,95.39l15.49-22.14V306.71l-60,85.68L605.91,423,664,340l19.14-27.31L702.28,340l58.09,83,21.43-30.61-60-85.68V73.22L751.08,115V297.45l36.24,51.78,0,0,9.56,13.64.17.27.33.47,20.14,28.74-17.81,25.45-2.62,3.76-18.88,26.94,39,55.63-59.8,85.39-55.15,78.73-19.12,27.32ZM624.16,560.36l59,84.21,59-84.21L733,547.29,772.3,491.1,760.35,474l-41.89,59.86L702.26,557l-19.12,27.34L664,557l-37.88-54.1L605.91,474,594,491.1l39.35,56.19Zm39-55.66,20,28.6,20-28.6-20-28.59Zm39.14-52.3L721,479.19l21.47-30.67L721,417.82l-37.85-54.08-37.85,54.08-21.5,30.7,21.47,30.67L664,452.39l19.14-27.31Z" transform="translate(-492.07 -73.22)"/></g></svg>